Coordinates
version=1
nRows=26
nColumns=27
inDegrees=yes

Units are S.I. units (second, meters, Newtons, ...)
If the header above contains a line with 'inDegrees', this indicates whether rotational values are in degrees (yes) or radians (no).

endheader
time	pelvis_rotation	pelvis_tilt	pelvis_list	pelvis_tx	pelvis_ty	pelvis_tz	hip_flexion_r	hip_adduction_r	hip_rotation_r	knee_angle_r	knee_rotation_r	knee_adduction_r	knee_angle_r_beta	ankle_angle_r	subtalar_angle_r	mtp_angle_r	hip_flexion_l	hip_adduction_l	hip_rotation_l	knee_angle_l	knee_rotation_l	knee_adduction_l	knee_angle_l_beta	ankle_angle_l	subtalar_angle_l	mtp_angle_l
      4.19000000	      5.03969583	    -26.90781791	      3.86842702	     -0.01588569	      0.65213543	     -1.14177452	     87.38973707	    -43.91135816	     -1.69062747	     77.72126186	      0.00000000	      9.89228449	      1.35649192	      9.80493619	      0.00000000	      0.00000000	     85.04694463	    -30.72874270	      0.13315961	     70.68050230	      0.00000000	     -9.90200263	      1.23360748	      6.60566559	      0.00000000	      0.00000000
      4.19500000	      5.12546222	    -26.95749595	      3.73795988	     -0.01613473	      0.65050259	     -1.14170532	     87.55549586	    -44.04857993	     -1.75918960	     77.99517384	      0.00000000	      9.89337548	      1.36127258	      9.89482973	      0.00000000	      0.00000000	     85.53733241	    -30.75574857	      0.46818811	     71.01238374	      0.00000000	     -9.90319726	      1.23939991	      6.63834371	      0.00000000	      0.00000000
      4.20000000	      5.12126094	    -27.02397562	      3.70243007	     -0.01641921	      0.64887448	     -1.14162916	     87.91297680	    -44.08647236	     -1.58203362	     78.28699284	      0.00000000	      9.89421508	      1.36636579	      9.93237711	      0.00000000	      0.00000000	     85.92852493	    -30.86105454	      0.62225869	     71.32046927	      0.00000000	     -9.90443189	      1.24477701	      6.65166264	      0.00000000	      0.00000000
      4.20500000	      4.92498362	    -27.08927609	      4.19826054	     -0.01667515	      0.64724689	     -1.14169086	     89.03664979	    -43.93302447	     -0.37612253	     78.68460217	      0.00000000	      9.89455920	      1.37330538	      9.97237537	      0.00000000	      0.00000000	     85.77649016	    -31.14730415	     -0.11774046	     71.51940138	      0.00000000	     -9.90578976	      1.24824903	      6.67684006	      0.00000000	      0.00000000
      4.21000000	      4.93779811	    -27.13746798	      4.13444308	     -0.01690094	      0.64567420	     -1.14158862	     89.30813969	    -43.98540360	     -0.28274008	     78.95688213	      0.00000000	      9.89535842	      1.37805756	     10.06204178	      0.00000000	      0.00000000	     86.17158408	    -31.25117030	      0.07005363	     71.82294555	      0.00000000	     -9.90677899	      1.25354688	      6.66639592	      0.00000000	      0.00000000
      4.21500000	      5.00049104	    -27.18230492	      4.20971413	     -0.01711815	      0.64412742	     -1.14157159	     89.73144903	    -44.09606757	      0.00424311	     79.25266207	      0.00000000	      9.89617088	      1.38321989	     10.10761679	      0.00000000	      0.00000000	     86.45224133	    -31.27759391	      0.10991215	     72.09160828	      0.00000000	     -9.90783057	      1.25823593	      6.71254979	      0.00000000	      0.00000000
      4.22000000	      5.04165562	    -27.22750559	      4.22712001	     -0.01729397	      0.64255394	     -1.14151484	     90.09814060	    -44.18886778	      0.20831430	     79.54442819	      0.00000000	      9.89698089	      1.38831217	     10.17982100	      0.00000000	      0.00000000	     86.76814433	    -31.34094991	      0.20933717	     72.36996077	      0.00000000	     -9.90857090	      1.26309409	      6.76853829	      0.00000000	      0.00000000
      4.22500000	      5.27178955	    -27.20809204	      4.02073891	     -0.01744023	      0.64115356	     -1.14144899	     89.96554464	    -44.49088867	     -0.14404901	     79.73443079	      0.00000000	      9.89799879	      1.39162834	     10.24656456	      0.00000000	      0.00000000	     87.27590758	    -31.19680305	      0.73848492	     72.65858553	      0.00000000	     -9.90904711	      1.26813155	      6.72302958	      0.00000000	      0.00000000
      4.23000000	      5.12350924	    -27.34556211	      4.29044418	     -0.01771584	      0.63950353	     -1.14138902	     90.86987444	    -44.33819093	      0.67930577	     80.10290558	      0.00000000	      9.89834281	      1.39805944	     10.28234793	      0.00000000	      0.00000000	     87.41926988	    -31.45578924	      0.37178456	     72.91246884	      0.00000000	     -9.91050315	      1.27256265	      6.78706340	      0.00000000	      0.00000000
      4.23500000	      5.15482893	    -27.40141015	      4.29412129	     -0.01790581	      0.63798550	     -1.14130784	     91.22155670	    -44.40133882	      0.87498764	     80.38298703	      0.00000000	      9.89899166	      1.40294779	     10.36059042	      0.00000000	      0.00000000	     87.75695029	    -31.52797549	      0.48179650	     73.18778400	      0.00000000	     -9.91135788	      1.27736780	      6.79777209	      0.00000000	      0.00000000
      4.24000000	      5.21329774	    -27.45355041	      4.31744620	     -0.01806916	      0.63645857	     -1.14125240	     91.58215349	    -44.50293716	      1.07697128	     80.66129382	      0.00000000	      9.89966312	      1.40780516	     10.41501219	      0.00000000	      0.00000000	     88.08269897	    -31.56646219	      0.58627709	     73.45781923	      0.00000000	     -9.91214503	      1.28208081	      6.83275427	      0.00000000	      0.00000000
      4.24500000	      5.24136415	    -27.51727324	      4.34216050	     -0.01827219	      0.63493190	     -1.14115906	     91.97166576	    -44.55619243	      1.31421593	     80.94293269	      0.00000000	      9.90032123	      1.41272068	     10.49388558	      0.00000000	      0.00000000	     88.41086255	    -31.63826112	      0.67428965	     73.72461089	      0.00000000	     -9.91298776	      1.28673720	      6.83702416	      0.00000000	      0.00000000
      4.25000000	      5.28014956	    -27.57849972	      4.36384190	     -0.01845726	      0.63340013	     -1.14108728	     92.35195358	    -44.62676825	      1.53545928	     81.21969880	      0.00000000	      9.90102313	      1.41755116	     10.53367680	      0.00000000	      0.00000000	     88.73867278	    -31.69172745	      0.77703607	     73.99278492	      0.00000000	     -9.91380191	      1.29141772	      6.87148984	      0.00000000	      0.00000000
      4.25500000	      5.45306695	    -27.58068284	      3.96546956	     -0.01856917	      0.63191814	     -1.14089369	     92.03667158	    -44.87563034	      0.92784399	     81.40179074	      0.00000000	      9.90183359	      1.42072927	     10.68396851	      0.00000000	      0.00000000	     89.42180015	    -31.61229472	      1.53557132	     74.32704764	      0.00000000	     -9.91431480	      1.29725170	      6.79464226	      0.00000000	      0.00000000
      4.26000000	      5.34272849	    -27.67083709	      4.41146500	     -0.01879551	      0.63025185	     -1.14092941	     93.10231146	    -44.75575773	      2.00416539	     81.79065181	      0.00000000	      9.90218195	      1.42751617	     10.68252332	      0.00000000	      0.00000000	     89.36956191	    -31.82203579	      0.97360880	     74.53932744	      0.00000000	     -9.91533086	      1.30095669	      6.91885114	      0.00000000	      0.00000000
      4.26500000	      5.38677880	    -27.72244883	      4.45055468	     -0.01896924	      0.62866796	     -1.14084350	     93.49744867	    -44.82999259	      2.25647388	     82.07653842	      0.00000000	      9.90297330	      1.43250583	     10.76274469	      0.00000000	      0.00000000	     89.68241990	    -31.87569372	      1.05794553	     74.80308178	      0.00000000	     -9.91614329	      1.30556007	      6.92106552	      0.00000000	      0.00000000
      4.27000000	      5.40890694	    -27.74744126	      4.47076454	     -0.01912037	      0.62701726	     -1.14077499	     93.86733040	    -44.88974598	      2.50376865	     82.37439252	      0.00000000	      9.90357397	      1.43770437	     10.84929597	      0.00000000	      0.00000000	     89.99010898	    -31.94400769	      1.17116403	     75.09615719	      0.00000000	     -9.91687386	      1.31067520	      6.96480037	      0.00000000	      0.00000000
      4.27500000	      5.64824543	    -27.69431827	      3.98613576	     -0.01918349	      0.62543274	     -1.14061076	     93.37074620	    -45.25333972	      1.70742669	     82.55300699	      0.00000000	      9.90459568	      1.44082178	     10.98072473	      0.00000000	      0.00000000	     90.72288304	    -31.75732610	      2.11916973	     75.46322253	      0.00000000	     -9.91731907	      1.31708170	      6.97564314	      0.00000000	      0.00000000
      4.28000000	      5.46512848	    -27.79500060	      4.52656638	     -0.01945372	      0.62364090	     -1.14063824	     94.62588827	    -45.01296278	      3.02716688	     82.97078107	      0.00000000	      9.90487492	      1.44811331	     11.00178513	      0.00000000	      0.00000000	     90.59474044	    -32.06075958	      1.39616439	     75.67161845	      0.00000000	     -9.91829569	      1.32071889	      7.03694224	      0.00000000	      0.00000000
      4.28500000	      5.47625475	    -27.82669321	      4.54190711	     -0.01961018	      0.62191166	     -1.14053586	     95.01480856	    -45.05525997	      3.28361053	     83.28107735	      0.00000000	      9.90550654	      1.45352900	     11.08827474	      0.00000000	      0.00000000	     90.92024422	    -32.14116401	      1.52011907	     75.96571827	      0.00000000	     -9.91906322	      1.32585190	      7.05663370	      0.00000000	      0.00000000
      4.29000000	      5.47946654	    -27.83185202	      4.54687289	     -0.01977213	      0.62013477	     -1.14048296	     95.36880728	    -45.08916247	      3.54389980	     83.58290342	      0.00000000	      9.90616170	      1.45879686	     11.18049974	      0.00000000	      0.00000000	     91.22375977	    -32.22052378	      1.65884115	     76.27056206	      0.00000000	     -9.91979349	      1.33117243	      7.09675901	      0.00000000	      0.00000000
      4.29500000	      5.52506014	    -27.80775473	      4.58426947	     -0.01989033	      0.61835560	     -1.14043321	     95.72077087	    -45.18195554	      3.81562304	     83.89377028	      0.00000000	      9.90676185	      1.46422251	     11.25368123	      0.00000000	      0.00000000	     91.48358661	    -32.25376696	      1.77844285	     76.56783475	      0.00000000	     -9.92038493	      1.33636082	      7.14795822	      0.00000000	      0.00000000
      4.30000000	      5.53008700	    -27.79782251	      4.59989019	     -0.02001095	      0.61654164	     -1.14036997	     96.07600000	    -45.21935460	      4.09231539	     84.20533081	      0.00000000	      9.90732807	      1.46966027	     11.33249779	      0.00000000	      0.00000000	     91.77164676	    -32.32796576	      1.91479545	     76.87504559	      0.00000000	     -9.92109388	      1.34172266	      7.19678578	      0.00000000	      0.00000000
      4.30500000	      5.50737140	    -27.81280049	      4.57917293	     -0.02013048	      0.61467819	     -1.14028206	     96.43096468	    -45.22611159	      4.33864447	     84.52733198	      0.00000000	      9.90779322	      1.47528025	     11.45143431	      0.00000000	      0.00000000	     92.11603736	    -32.43745281	      2.08131177	     77.19723285	      0.00000000	     -9.92178540	      1.34734589	      7.20925505	      0.00000000	      0.00000000
      4.31000000	      5.52642834	    -27.77591162	      4.60607981	     -0.02023255	      0.61280447	     -1.14023317	     96.78079572	    -45.27838175	      4.63640444	     84.84630383	      0.00000000	      9.90842725	      1.48084736	     11.54201012	      0.00000000	      0.00000000	     92.37342245	    -32.49139417	      2.22064844	     77.51069355	      0.00000000	     -9.92244447	      1.35281681	      7.28853683	      0.00000000	      0.00000000
      4.31500000	      5.74341446	    -27.70651729	      4.38643356	     -0.02028415	      0.61099092	     -1.14018783	     96.68360284	    -45.61080257	      4.36858558	     85.10386878	      0.00000000	      9.90929716	      1.48534272	     11.63596248	      0.00000000	      0.00000000	     92.87552437	    -32.28761241	      2.83083559	     77.85223587	      0.00000000	     -9.92287032	      1.35877785	      7.36606693	      0.00000000	      0.00000000
